<svg width="16.000000" height="16.000000" viewBox="0 0 16 16" fill="none" xmlns="http://www.w3.org/2000/svg" xmlns:xlink="http://www.w3.org/1999/xlink">
	<desc>
			Created with Pixso.
	</desc>
	<defs/>
	<path id="Vector" d="M9.92 15.71C9.89 15.71 9.87 15.73 9.87 15.75L9.87 15.8C9.87 15.83 9.89 15.84 9.92 15.84L15.93 15.84C15.97 15.84 16 15.83 16 15.8L16 15.75C16 15.73 15.97 15.71 15.93 15.71L15.22 15.71C14.75 15.71 14.42 15.63 14.22 15.47C14.04 15.31 13.89 15.05 13.76 14.69C13.01 12.44 12.3 10.2 11.65 7.96C11 5.72 10.35 3.47 9.71 1.2C9.62 0.89 9.62 0.64 9.71 0.43C9.8 0.23 10.02 0.13 10.35 0.13L11.72 0.13C11.76 0.13 11.78 0.1 11.78 0.06L11.78 0.04C11.78 0.01 11.76 0 11.72 0L2.61 0C2.55 0 2.52 0.01 2.52 0.04L2.52 0.06C2.52 0.1 2.55 0.13 2.61 0.13L4.3 0.13C4.6 0.13 4.75 0.26 4.75 0.52C4.75 0.64 4.74 0.75 4.71 0.87C4.68 0.97 4.62 1.12 4.55 1.33C4.41 1.66 4.24 2.06 4.05 2.53C3.86 2.98 3.67 3.44 3.48 3.92C3.28 4.4 3.09 4.87 2.91 5.32C2.73 5.77 2.57 6.17 2.43 6.5C2.14 7.21 1.85 7.91 1.54 8.6C1.25 9.28 1 9.93 0.77 10.56C0.54 11.17 0.35 11.75 0.2 12.31C0.06 12.84 0 13.34 0 13.79C0 14.56 0.19 15.12 0.59 15.47C0.98 15.82 1.47 16 2.07 16C2.55 16 2.99 15.87 3.39 15.62C3.78 15.36 4.15 15.04 4.5 14.66C4.87 14.27 5.21 13.86 5.53 13.42C5.86 12.97 6.2 12.55 6.55 12.18C6.9 11.78 7.26 11.46 7.64 11.21C8.04 10.95 8.46 10.82 8.92 10.82C9.65 10.82 10.21 11.03 10.6 11.43C11 11.84 11.28 12.31 11.47 12.83C11.59 13.15 11.68 13.46 11.74 13.75C11.81 14.04 11.89 14.3 11.97 14.53C12 14.66 12 14.8 11.99 14.95C11.99 15.09 11.94 15.22 11.85 15.34C11.78 15.44 11.64 15.53 11.44 15.6C11.26 15.67 11.01 15.71 10.69 15.71L9.92 15.71ZM3.86 6.85C4.73 6.85 5.36 7.04 5.75 7.42C6.15 7.78 6.34 8.38 6.34 9.21L6.34 11.48C6.01 11.71 5.68 11.96 5.37 12.22C5.05 12.48 4.74 12.72 4.43 12.94C4.13 13.16 3.83 13.34 3.55 13.48C3.26 13.62 2.97 13.68 2.68 13.68C2.26 13.68 1.87 13.56 1.52 13.31C1.17 13.05 1 12.62 1 12.02C1 11.66 1.06 11.24 1.18 10.78C1.32 10.3 1.47 9.82 1.63 9.34C1.82 8.86 2 8.4 2.18 7.96C2.36 7.53 2.51 7.15 2.64 6.85L3.86 6.85ZM4.75 1.57C4.93 1.13 5.16 0.85 5.43 0.72C5.72 0.58 6.03 0.51 6.34 0.5L6.34 4.3C6.34 5.15 6.16 5.77 5.78 6.15C5.4 6.53 4.76 6.72 3.86 6.72L2.68 6.72C2.91 6.15 3.14 5.58 3.36 5.02C3.59 4.43 3.8 3.9 4 3.42C4.2 2.94 4.36 2.53 4.48 2.2C4.62 1.86 4.71 1.65 4.75 1.57ZM10.44 9.32C10.47 9.42 10.5 9.54 10.53 9.69C10.56 9.83 10.58 9.97 10.58 10.1C10.59 10.23 10.59 10.36 10.56 10.47C10.54 10.57 10.49 10.65 10.42 10.69C10.39 10.71 10.34 10.71 10.26 10.71C10.11 10.71 9.93 10.68 9.71 10.63C9.52 10.55 9.24 10.52 8.89 10.52C8.47 10.52 8.06 10.6 7.66 10.78C7.27 10.94 6.88 11.14 6.48 11.39L6.48 9.21C6.48 8.36 6.66 7.76 7.03 7.39C7.41 7.03 8.04 6.85 8.94 6.85L9.74 6.85C9.86 7.26 9.97 7.67 10.08 8.09C10.2 8.5 10.32 8.91 10.44 9.32ZM8.94 6.72C8.07 6.72 7.45 6.52 7.05 6.13C6.67 5.74 6.48 5.12 6.48 4.3L6.48 0.5C7.01 0.51 7.41 0.62 7.66 0.82C7.92 1.03 8.11 1.3 8.21 1.65C8.38 2.21 8.59 2.93 8.85 3.81C9.11 4.7 9.39 5.67 9.69 6.72L8.94 6.72Z" fill="#212529" fill-opacity="1.000000" fill-rule="nonzero"/>
</svg>
